<?xml version="1.0" encoding="UTF-8" standalone="no"?>
<!-- Created with Inkscape (http://www.inkscape.org/) -->

<svg
   xmlns:dc="http://purl.org/dc/elements/1.1/"
   xmlns:cc="http://creativecommons.org/ns#"
   xmlns:rdf="http://www.w3.org/1999/02/22-rdf-syntax-ns#"
   xmlns:svg="http://www.w3.org/2000/svg"
   xmlns="http://www.w3.org/2000/svg"
   xmlns:sodipodi="http://sodipodi.sourceforge.net/DTD/sodipodi-0.dtd"
   xmlns:inkscape="http://www.inkscape.org/namespaces/inkscape"
   width="186.54689"
   height="47.226368"
   viewBox="0 0 49.357199 12.49531"
   version="1.1"
   id="svg8"
   inkscape:version="0.92.5 (2060ec1f9f, 2020-04-08)"
   sodipodi:docname="logo.svg">
  <defs
     id="defs2" />
  <sodipodi:namedview
     id="base"
     pagecolor="#ffffff"
     bordercolor="#666666"
     borderopacity="1.0"
     inkscape:pageopacity="0.0"
     inkscape:pageshadow="2"
     inkscape:zoom="7.9195959"
     inkscape:cx="117.53274"
     inkscape:cy="19.069284"
     inkscape:document-units="px"
     inkscape:current-layer="layer1"
     showgrid="true"
     inkscape:window-width="3840"
     inkscape:window-height="2032"
     inkscape:window-x="0"
     inkscape:window-y="54"
     inkscape:window-maximized="1"
     showguides="true"
     inkscape:guide-bbox="true"
     fit-margin-top="0"
     fit-margin-left="0"
     fit-margin-right="0"
     fit-margin-bottom="0"
     units="px">
    <sodipodi:guide
       position="12.047079,3.8669292"
       orientation="0,1"
       id="guide4692"
       inkscape:locked="false" />
    <sodipodi:guide
       position="31.017672,11.373081"
       orientation="0,1"
       id="guide4971"
       inkscape:locked="false" />
    <sodipodi:guide
       position="-1.8799777e-15,11.366092"
       orientation="1,0"
       id="guide4986"
       inkscape:locked="false" />
    <sodipodi:guide
       position="49.373141,6.7090775"
       orientation="1,0"
       id="guide4988"
       inkscape:locked="false" />
    <inkscape:grid
       type="xygrid"
       id="grid5003" />
  </sodipodi:namedview>
  <metadata
     id="metadata5">
    <rdf:RDF>
      <cc:Work
         rdf:about="">
        <dc:format>image/svg+xml</dc:format>
        <dc:type
           rdf:resource="http://purl.org/dc/dcmitype/StillImage" />
        <dc:title></dc:title>
      </cc:Work>
    </rdf:RDF>
  </metadata>
  <g
     inkscape:label="Layer 1"
     inkscape:groupmode="layer"
     id="layer1"
     transform="translate(-16.567464,-52.48955)">
    <g
       aria-label="IP"
       style="font-style:normal;font-variant:normal;font-weight:900;font-stretch:normal;font-size:10.58333302px;line-height:1.25;font-family:Roboto;-inkscape-font-specification:'Roboto, Heavy';font-variant-ligatures:normal;font-variant-caps:normal;font-variant-numeric:normal;font-feature-settings:normal;text-align:start;letter-spacing:0px;word-spacing:0px;writing-mode:lr-tb;text-anchor:start;opacity:1;vector-effect:none;fill:#7b8aff;fill-opacity:1;stroke-width:0.52916667;stroke-linecap:butt;stroke-linejoin:miter;stroke-miterlimit:4;stroke-dasharray:none;stroke-dashoffset:0;stroke-opacity:1;stroke:none;paint-order:markers stroke fill"
       id="text817">
      <path
         d="m 18.376139,53.618768 v 7.524089 h -1.808675 v -7.524089 z"
         style="font-style:normal;font-variant:normal;font-weight:900;font-stretch:normal;font-size:10.58333302px;font-family:Roboto;-inkscape-font-specification:'Roboto, Heavy';font-variant-ligatures:normal;font-variant-caps:normal;font-variant-numeric:normal;font-feature-settings:normal;text-align:start;writing-mode:lr-tb;text-anchor:start;vector-effect:none;fill:#7b8aff;fill-opacity:1;stroke-width:0.52916667;stroke-linecap:butt;stroke-linejoin:miter;stroke-miterlimit:4;stroke-dasharray:none;stroke-dashoffset:0;stroke-opacity:1;stroke:none;paint-order:markers stroke fill"
         id="path4800"
         inkscape:connector-curvature="0" />
      <path
         d="m 21.461222,58.590041 v 2.552816 h -1.813843 v -7.524089 h 3.002401 q 1.353922,0 2.134237,0.72347 0.780314,0.72347 0.780314,1.829346 0,1.09554 -0.780314,1.756999 -0.780315,0.661458 -2.134237,0.661458 z m 0,-3.570841 v 2.17041 h 1.188558 q 0.568441,0 0.821655,-0.284221 0.258382,-0.28422 0.258382,-0.72347 0,-0.45992 -0.258382,-0.81132 Q 23.218221,55.0192 22.64978,55.0192 Z"
         style="font-style:normal;font-variant:normal;font-weight:900;font-stretch:normal;font-size:10.58333302px;font-family:Roboto;-inkscape-font-specification:'Roboto, Heavy';font-variant-ligatures:normal;font-variant-caps:normal;font-variant-numeric:normal;font-feature-settings:normal;text-align:start;writing-mode:lr-tb;text-anchor:start;vector-effect:none;fill:#7b8aff;fill-opacity:1;stroke-width:0.52916667;stroke-linecap:butt;stroke-linejoin:miter;stroke-miterlimit:4;stroke-dasharray:none;stroke-dashoffset:0;stroke-opacity:1;stroke:none;paint-order:markers stroke fill"
         id="path4802"
         inkscape:connector-curvature="0" />
    </g>
    <path
       style="vector-effect:none;fill:#7b8aff;fill-opacity:1;stroke:none;stroke-width:1.99999998;stroke-linecap:butt;stroke-linejoin:miter;stroke-miterlimit:4;stroke-dasharray:none;stroke-dashoffset:0;stroke-opacity:1;paint-order:markers stroke fill"
       d="M 39.240234 9.6308594 C 38.23028 9.6308594 37.425781 10.435355 37.425781 11.445312 L 37.425781 16.207031 C 37.425781 17.216985 38.23028 18.019531 39.240234 18.019531 L 42.744141 18.019531 L 46.384766 24.232422 C 45.688033 24.42062 45.169695 25.004042 45.074219 25.736328 C 45.047933 25.860354 45.03125 25.988355 45.03125 26.121094 L 45.03125 30.880859 C 45.03125 31.742944 45.618339 32.450642 46.417969 32.640625 L 42.783203 38.816406 L 39.279297 38.816406 C 38.269343 38.816406 37.466797 39.64239 37.466797 40.652344 L 37.466797 45.412109 C 37.466797 46.42206 38.269343 47.226562 39.279297 47.226562 L 45.462891 47.226562 C 46.472845 47.226562 47.277344 46.42206 47.277344 45.412109 L 47.277344 40.652344 C 47.277344 39.64239 46.472845 38.837891 45.462891 38.837891 L 44.84375 38.837891 L 48.460938 32.695312 L 53.029297 32.695312 C 53.959785 32.695312 54.707178 32.010477 54.820312 31.113281 C 54.84552 30.991688 54.861328 30.868193 54.861328 30.738281 L 54.861328 25.976562 C 54.861328 25.115138 54.275249 24.407433 53.476562 24.216797 L 57.109375 18.041016 L 60.613281 18.041016 C 61.623235 18.041016 62.427734 17.216985 62.427734 16.207031 L 62.427734 11.445312 C 62.427734 10.435355 61.623235 9.6308594 60.613281 9.6308594 L 54.429688 9.6308594 C 53.419733 9.6308594 52.617188 10.435355 52.617188 11.445312 L 52.617188 16.207031 C 52.617187 17.216985 53.419733 18.019531 54.429688 18.019531 L 55.048828 18.019531 L 51.431641 24.162109 L 48.421875 24.162109 L 44.826172 18.019531 L 45.423828 18.019531 C 46.433782 18.019531 47.236328 17.216985 47.236328 16.207031 L 47.236328 11.445312 C 47.236328 10.435355 46.433782 9.6308594 45.423828 9.6308594 L 39.240234 9.6308594 z "
       transform="matrix(0.26458334,0,0,0.26458334,16.567464,52.48955)"
       id="path889" />
    <g
       aria-label="Drawio"
       style="font-style:normal;font-variant:normal;font-weight:900;font-stretch:normal;font-size:10.58333302px;line-height:1.25;font-family:Roboto;-inkscape-font-specification:'Roboto, Heavy';font-variant-ligatures:normal;font-variant-caps:normal;font-variant-numeric:normal;font-feature-settings:normal;text-align:start;letter-spacing:0px;word-spacing:0px;writing-mode:lr-tb;text-anchor:start;opacity:1;vector-effect:none;fill:#7b8aff;fill-opacity:1;stroke-width:0.52916667;stroke-linecap:butt;stroke-linejoin:miter;stroke-miterlimit:4;stroke-dasharray:none;stroke-dashoffset:0;stroke-opacity:1;stroke:none;paint-order:markers stroke fill"
       id="text4698"
       transform="translate(2.1166667)">
      <path
         d="m 31.794447,61.142857 v -7.524089 h 2.418457 q 1.018026,0 1.803507,0.459921 0.79065,0.454752 1.235067,1.27124 0.449585,0.81132 0.449585,1.875854 v 0.315226 q 0,1.586467 -0.971517,2.594157 -0.966349,1.002523 -2.480469,1.007691 z M 33.60829,55.0192 v 4.728393 h 0.630452 q 1.519287,0 1.607137,-1.958537 l 0.0052,-0.573608 q 0,-2.14974 -1.570964,-2.196248 z"
         style="font-style:normal;font-variant:normal;font-weight:900;font-stretch:normal;font-size:10.58333302px;font-family:Roboto;-inkscape-font-specification:'Roboto, Heavy';font-variant-ligatures:normal;font-variant-caps:normal;font-variant-numeric:normal;font-feature-settings:normal;text-align:start;writing-mode:lr-tb;text-anchor:start;vector-effect:none;fill:#7b8aff;fill-opacity:1;stroke-width:0.52916667;stroke-linecap:butt;stroke-linejoin:miter;stroke-miterlimit:4;stroke-dasharray:none;stroke-dashoffset:0;stroke-opacity:1;stroke:none;paint-order:markers stroke fill"
         id="path4730"
         inkscape:connector-curvature="0" />
      <path
         d="m 41.364922,57.086257 q -0.816488,0 -1.049032,0.511596 v 3.545004 h -1.741495 v -5.59139 h 1.627807 l 0.05684,0.713135 q 0.43925,-0.816488 1.229899,-0.816488 0.289388,0 0.480591,0.06201 l -0.03101,1.617472 z"
         style="font-style:normal;font-variant:normal;font-weight:900;font-stretch:normal;font-size:10.58333302px;font-family:Roboto;-inkscape-font-specification:'Roboto, Heavy';font-variant-ligatures:normal;font-variant-caps:normal;font-variant-numeric:normal;font-feature-settings:normal;text-align:start;writing-mode:lr-tb;text-anchor:start;vector-effect:none;fill:#7b8aff;fill-opacity:1;stroke-width:0.52916667;stroke-linecap:butt;stroke-linejoin:miter;stroke-miterlimit:4;stroke-dasharray:none;stroke-dashoffset:0;stroke-opacity:1;stroke:none;paint-order:markers stroke fill"
         id="path4732"
         inkscape:connector-curvature="0" />
      <path
         d="m 45.561048,61.142857 q -0.09819,-0.201538 -0.160197,-0.501262 -0.480591,0.604614 -1.343587,0.604614 -0.775147,0 -1.33842,-0.465087 -0.558105,-0.470256 -0.558105,-1.214397 0,-0.852661 0.620117,-1.338419 0.625285,-0.490926 1.943034,-0.501261 h 0.594279 v -0.294556 q 0,-0.769979 -0.666626,-0.769979 -0.620118,0 -0.620118,0.609782 H 42.28993 q 0,-0.780314 0.666626,-1.302246 0.666626,-0.521932 1.788004,-0.521932 0.997355,0 1.658814,0.501261 Q 47.07,56.445469 47.07,57.442824 v 2.43396 q 0.01033,0.759644 0.237711,1.178223 v 0.08785 z m -1.090373,-1.136882 q 0.320394,0 0.537435,-0.134359 0.217041,-0.139526 0.310059,-0.310058 V 58.65722 h -0.547771 q -0.490926,0 -0.682129,0.253215 -0.186035,0.248047 -0.186035,0.563273 0,0.237711 0.160197,0.387573 0.165365,0.144694 0.408244,0.144694 z"
         style="font-style:normal;font-variant:normal;font-weight:900;font-stretch:normal;font-size:10.58333302px;font-family:Roboto;-inkscape-font-specification:'Roboto, Heavy';font-variant-ligatures:normal;font-variant-caps:normal;font-variant-numeric:normal;font-feature-settings:normal;text-align:start;writing-mode:lr-tb;text-anchor:start;vector-effect:none;fill:#7b8aff;fill-opacity:1;stroke-width:0.52916667;stroke-linecap:butt;stroke-linejoin:miter;stroke-miterlimit:4;stroke-dasharray:none;stroke-dashoffset:0;stroke-opacity:1;stroke:none;paint-order:markers stroke fill"
         id="path4734"
         inkscape:connector-curvature="0" />
      <path
         d="m 55.09535,55.551467 -1.312581,5.59139 h -1.477946 l -0.919841,-3.31246 -0.935343,3.31246 h -1.467611 l -1.322916,-5.59139 h 1.669148 l 0.552938,3.369303 0.888835,-3.369303 h 1.214396 l 0.883667,3.307291 0.558105,-3.307291 z"
         style="font-style:normal;font-variant:normal;font-weight:900;font-stretch:normal;font-size:10.58333302px;font-family:Roboto;-inkscape-font-specification:'Roboto, Heavy';font-variant-ligatures:normal;font-variant-caps:normal;font-variant-numeric:normal;font-feature-settings:normal;text-align:start;writing-mode:lr-tb;text-anchor:start;vector-effect:none;fill:#7b8aff;fill-opacity:1;stroke-width:0.52916667;stroke-linecap:butt;stroke-linejoin:miter;stroke-miterlimit:4;stroke-dasharray:none;stroke-dashoffset:0;stroke-opacity:1;stroke:none;paint-order:markers stroke fill"
         id="path4736"
         inkscape:connector-curvature="0" />
      <path
         d="m 57.560315,55.551467 v 5.59139 h -1.746664 v -5.59139 z"
         style="font-style:normal;font-variant:normal;font-weight:900;font-stretch:normal;font-size:10.58333302px;font-family:Roboto;-inkscape-font-specification:'Roboto, Heavy';font-variant-ligatures:normal;font-variant-caps:normal;font-variant-numeric:normal;font-feature-settings:normal;text-align:start;writing-mode:lr-tb;text-anchor:start;vector-effect:none;fill:#7b8aff;fill-opacity:1;stroke-width:0.52916667;stroke-linecap:butt;stroke-linejoin:miter;stroke-miterlimit:4;stroke-dasharray:none;stroke-dashoffset:0;stroke-opacity:1;stroke:none;paint-order:markers stroke fill"
         id="path4738"
         inkscape:connector-curvature="0"
         sodipodi:nodetypes="ccccc" />
      <path
         d="m 58.412977,58.295485 q 0,-1.224731 0.687296,-2.036051 0.692464,-0.81132 2.005046,-0.81132 1.317749,0 2.010213,0.81132 0.692464,0.81132 0.692464,2.036051 v 0.108521 q 0,1.224731 -0.692464,2.036051 -0.687297,0.806152 -1.999878,0.806152 -1.302246,0 -1.99471,-0.785481 -0.687297,-0.79065 -0.707967,-1.989543 z m 1.741495,0.108521 q 0,0.630452 0.196371,1.064534 0.201538,0.434082 0.764811,0.434082 0.54777,0 0.749308,-0.428914 0.201538,-0.434082 0.201538,-1.178223 0,-0.614949 -0.201538,-1.059367 -0.19637,-0.444417 -0.759643,-0.444417 -0.547771,0 -0.749309,0.444417 -0.201538,0.43925 -0.201538,1.167888 z"
         style="font-style:normal;font-variant:normal;font-weight:900;font-stretch:normal;font-size:10.58333302px;font-family:Roboto;-inkscape-font-specification:'Roboto, Heavy';font-variant-ligatures:normal;font-variant-caps:normal;font-variant-numeric:normal;font-feature-settings:normal;text-align:start;writing-mode:lr-tb;text-anchor:start;vector-effect:none;fill:#7b8aff;fill-opacity:1;stroke-width:0.52916667;stroke-linecap:butt;stroke-linejoin:miter;stroke-miterlimit:4;stroke-dasharray:none;stroke-dashoffset:0;stroke-opacity:1;stroke:none;paint-order:markers stroke fill"
         id="path4740"
         inkscape:connector-curvature="0" />
    </g>
    <path
       sodipodi:nodetypes="sccssssssss"
       id="path4977"
       d="m 57.98378,52.48955 h 0.927079 l 0.545342,0.0055 h 0.163602 c 0.267217,0 0.4799,0.212682 0.4799,0.4799 v 1.259738 c 0,0.267216 -0.212683,0.4799 -0.4799,0.4799 H 57.98378 c -0.267217,0 -0.4799,-0.212684 -0.4799,-0.4799 v -1.259783 c 0,-0.267218 0.212683,-0.485354 0.4799,-0.485355 z"
       inkscape:connector-curvature="0"
       style="vector-effect:none;fill:#7b8aff;fill-opacity:1;stroke-width:0.52916667;stroke-linecap:butt;stroke-linejoin:miter;stroke-miterlimit:4;stroke-dasharray:none;stroke-dashoffset:0;stroke-opacity:1;stroke:none;paint-order:markers stroke fill" />
  </g>
</svg>
